<?xml version="1.0" encoding="UTF-8" standalone="no"?>
<!-- Created with Inkscape (http://www.inkscape.org/) -->

<svg
        xmlns:dc="http://purl.org/dc/elements/1.1/"
        xmlns:cc="http://creativecommons.org/ns#"
        xmlns:rdf="http://www.w3.org/1999/02/22-rdf-syntax-ns#"
        xmlns:sodipodi="http://sodipodi.sourceforge.net/DTD/sodipodi-0.dtd"
        xmlns:inkscape="http://www.inkscape.org/namespaces/inkscape"
        xmlns="http://www.w3.org/2000/svg"
        width="186.19891mm"
        height="42.444439mm"
        viewBox="0 0 186.19891 42.444439"
        version="1.1"
        id="svg1105"
        inkscape:version="0.92.2 (5c3e80d, 2017-08-06)"
        sodipodi:docname="logo-colour-full.svg">
  <defs
     id="defs1099" />
  <sodipodi:namedview
     id="base"
     pagecolor="#ffffff"
     bordercolor="#666666"
     borderopacity="1.0"
     inkscape:pageopacity="0.0"
     inkscape:pageshadow="2"
     inkscape:zoom="1.4"
     inkscape:cx="357.34931"
     inkscape:cy="20.125516"
     inkscape:document-units="mm"
     inkscape:current-layer="g9633-2-7"
     showgrid="false"
     fit-margin-top="0"
     fit-margin-left="0"
     fit-margin-right="0"
     fit-margin-bottom="0"
     inkscape:pagecheckerboard="true"
     inkscape:window-width="1920"
     inkscape:window-height="1017"
     inkscape:window-x="-8"
     inkscape:window-y="-8"
     inkscape:window-maximized="1" />
  <metadata
     id="metadata1102">
    <rdf:RDF>
      <cc:Work
         rdf:about="">
        <dc:format>image/svg+xml</dc:format>
        <dc:type
           rdf:resource="http://purl.org/dc/dcmitype/StillImage" />
        <dc:title></dc:title>
      </cc:Work>
    </rdf:RDF>
  </metadata>
  <g
     inkscape:label="Layer 1"
     inkscape:groupmode="layer"
     id="layer1"
     transform="translate(-12.733872,-2.5999291)">
    <g
       id="g9633-2-7"
       transform="matrix(0.597643,0,0,0.597643,-51.432039,-128.84883)"
       inkscape:transform-center-x="18.696628"
       inkscape:transform-center-y="-46.377329"
       style="stroke:#f9f9f9">
      <path
         style="color:#000000;font-style:normal;font-variant:normal;font-weight:normal;font-stretch:normal;font-size:medium;line-height:normal;font-family:sans-serif;font-variant-ligatures:normal;font-variant-position:normal;font-variant-caps:normal;font-variant-numeric:normal;font-variant-alternates:normal;font-feature-settings:normal;text-indent:0;text-align:start;text-decoration:none;text-decoration-line:none;text-decoration-style:solid;text-decoration-color:#000000;letter-spacing:normal;word-spacing:normal;text-transform:none;writing-mode:lr-tb;direction:ltr;text-orientation:mixed;dominant-baseline:auto;baseline-shift:baseline;text-anchor:start;white-space:normal;shape-padding:0;clip-rule:nonzero;display:inline;overflow:visible;visibility:visible;opacity:1;isolation:auto;mix-blend-mode:normal;color-interpolation:sRGB;color-interpolation-filters:linearRGB;solid-color:#000000;solid-opacity:1;vector-effect:none;fill:#00ccff;fill-opacity:1;fill-rule:nonzero;stroke:none;stroke-width:6.77642441;stroke-linecap:butt;stroke-linejoin:miter;stroke-miterlimit:4;stroke-dasharray:none;stroke-dashoffset:0;stroke-opacity:1;color-rendering:auto;image-rendering:auto;shape-rendering:auto;text-rendering:auto;enable-background:accumulate"
         d="M 80.210938,1.7871094 C 35.952097,1.7871094 2.2588082e-5,37.737255 0,81.996094 c 0,44.258836 35.952097,80.210936 80.210938,80.210936 29.812252,0 55.828392,-16.32713 69.650392,-40.50391 h 72.00976 v -6.96484 h -68.45507 -7.43555 v -0.0469 c -12.01585,24.15625 -36.92721,40.73828 -65.769532,40.73828 -40.59659,0 -73.4335943,-32.83701 -73.4335942,-73.433596 C 6.7773663,41.399505 39.614348,8.5644531 80.210938,8.5644531 c 28.842322,0 53.753682,16.5820229 65.769532,40.7382809 v -0.0078 h 7.45312 C 140.90149,21.316763 112.82188,1.7871094 80.210938,1.7871094 Z"
         transform="matrix(0.44271134,0,0,0.44271134,107.36495,219.15411)"
         id="path8699-5-4"
         inkscape:connector-curvature="0" />
      <g
         transform="matrix(-0.90712031,0,0,0.90712031,190.19104,212.31624)"
         style="fill:#ff6600;stroke:#ff6600;stroke-width:0.5;stroke-miterlimit:4;stroke-dasharray:none"
         id="g4723-4-6">
        <circle
           r="6.0135641"
           cy="31.019346"
           cx="73.062798"
           id="circle4668-7-3"
           style="fill:#ff6600;fill-opacity:1;stroke:#ff6600;stroke-width:1;stroke-miterlimit:4;stroke-dasharray:none" />
        <circle
           r="6.0135641"
           cy="20.436012"
           cx="52.160713"
           id="circle4670-9-1"
           style="fill:#ff6600;fill-opacity:1;stroke:#ff6600;stroke-width:1;stroke-miterlimit:4;stroke-dasharray:none" />
        <circle
           r="6.0135641"
           cy="46.894344"
           cx="73.327377"
           id="circle4672-4-3"
           style="fill:#ff6600;fill-opacity:1;stroke:#ff6600;stroke-width:1;stroke-miterlimit:4;stroke-dasharray:none" />
        <circle
           r="6.0135641"
           cy="62.769344"
           cx="73.327377"
           id="circle4674-8-3"
           style="fill:#ff6600;fill-opacity:1;stroke:#ff6600;stroke-width:1;stroke-miterlimit:4;stroke-dasharray:none" />
        <circle
           r="6.0135641"
           cy="74.675598"
           cx="52.160713"
           id="circle4676-4-3"
           style="fill:#ff6600;fill-opacity:1;stroke:#ff6600;stroke-width:1;stroke-miterlimit:4;stroke-dasharray:none" />
        <circle
           r="6.0135641"
           cy="47.080635"
           cx="25.925142"
           id="circle4678-6-6"
           style="fill:#ff6600;fill-opacity:1;stroke:#ff6600;stroke-width:1;stroke-miterlimit:4;stroke-dasharray:none" />
      </g>
      <g
         transform="matrix(-0.90712031,0,0,0.90712031,190.19104,211.71622)"
         style="stroke:#ff6600;stroke-width:3;stroke-miterlimit:4;stroke-dasharray:none"
         id="g4713-4-1">
        <path
           sodipodi:nodetypes="ccc"
           inkscape:connector-curvature="0"
           id="path4688-1-8"
           d="M 52.160713,21.097471 25.925142,47.742094 52.160713,75.337057"
           style="fill:none;stroke:#ff6600;stroke-width:3;stroke-linecap:butt;stroke-linejoin:miter;stroke-miterlimit:4;stroke-dasharray:none;stroke-opacity:1" />
        <a
           style="stroke:#ff6600;stroke-width:3;stroke-miterlimit:4;stroke-dasharray:none"
           id="a8975-0-7">
          <path
             inkscape:connector-curvature="0"
             id="path4696-6-9"
             d="M 73.062797,31.680805 25.925142,47.742094"
             style="fill:none;stroke:#ff6600;stroke-width:3;stroke-linecap:butt;stroke-linejoin:miter;stroke-miterlimit:4;stroke-dasharray:none;stroke-opacity:1"
             sodipodi:nodetypes="cc" />
        </a>
        <path
           sodipodi:nodetypes="cc"
           style="fill:none;stroke:#ff6600;stroke-width:3;stroke-linecap:butt;stroke-linejoin:miter;stroke-miterlimit:4;stroke-dasharray:none;stroke-opacity:1"
           d="m 73.327377,47.555804 -47.402235,0.18629"
           id="path4698-4-4"
           inkscape:connector-curvature="0" />
        <path
           sodipodi:nodetypes="cc"
           inkscape:connector-curvature="0"
           id="path8681-0-1"
           d="M 52.160713,21.097471 V 75.337057"
           style="fill:#ff6600;stroke:#ff6600;stroke-width:3;stroke-linecap:butt;stroke-linejoin:miter;stroke-miterlimit:4;stroke-dasharray:none;stroke-opacity:1" />
        <path
           sodipodi:nodetypes="cc"
           inkscape:connector-curvature="0"
           id="path8685-0-7"
           d="M 73.327377,63.430804 25.925142,47.742094"
           style="fill:#ff6600;stroke:#ff6600;stroke-width:3;stroke-linecap:butt;stroke-linejoin:miter;stroke-miterlimit:4;stroke-dasharray:none;stroke-opacity:1" />
      </g>
    </g>
    <g
       transform="translate(8.8107714,48.102451)"
       aria-label="splitgraph"
       style="font-style:normal;font-variant:normal;font-weight:normal;font-stretch:normal;font-size:41.78756714px;line-height:1.25;font-family:'Sitka Small';-inkscape-font-specification:'Sitka Small';letter-spacing:0px;word-spacing:0px;fill:#00ccff;fill-opacity:1;stroke:none;stroke-width:0.21764354"
       id="text9616-0-2">
      <path
         inkscape:connector-curvature="0"
         d="m 48.22194,-20.940822 h 1.760143 l 0.379887,1.139661 q 0.07598,0.240595 0.189944,0.405213 0.126629,0.151955 0.291246,0.253258 0.265921,0.151955 0.569831,0.265921 0.303909,0.113966 0.633144,0.202606 0.329236,0.07598 0.683797,0.126629 0.354561,0.03799 0.709122,0.03799 0.531842,0 1.101672,-0.113966 0.569831,-0.126629 1.038358,-0.379887 0.468527,-0.265921 0.759774,-0.658471 0.303909,-0.39255 0.303909,-0.937054 0,-0.455865 -0.139292,-0.772437 -0.139292,-0.329235 -0.405212,-0.569831 -0.265921,-0.253257 -0.671134,-0.430538 -0.39255,-0.177281 -0.924392,-0.329235 -0.74711,-0.21527 -1.481558,-0.430539 -0.734449,-0.215269 -1.481559,-0.430538 -0.7851,-0.227932 -1.367593,-0.595157 -0.582494,-0.367224 -0.975043,-0.848414 -0.39255,-0.493853 -0.582494,-1.063683 -0.189943,-0.582493 -0.189943,-1.228301 0,-0.911729 0.493853,-1.684165 0.493853,-0.7851 1.316941,-1.35493 0.823088,-0.569831 1.899435,-0.886403 1.076346,-0.316573 2.241332,-0.316573 0.60782,0 1.139661,0.05065 0.544505,0.03799 1.038358,0.126629 0.493853,0.07598 0.96238,0.189943 0.468527,0.113967 0.96238,0.253258 v 3.241702 h -1.74748 l -0.379887,-1.240964 q -0.06331,-0.189943 -0.215269,-0.329235 -0.151955,-0.151955 -0.291246,-0.227932 -0.443202,-0.21527 -0.962381,-0.291247 -0.519178,-0.08864 -1.089009,-0.08864 -0.620482,0 -1.139661,0.126629 -0.519178,0.113966 -0.899065,0.341898 -0.379887,0.227932 -0.595156,0.56983 -0.202607,0.341899 -0.202607,0.7851 0,0.455864 0.139292,0.810425 0.139292,0.341899 0.455864,0.633145 0.316573,0.278584 0.810426,0.506516 0.506516,0.227932 1.215638,0.443202 0.30391,0.08864 0.607819,0.189943 0.30391,0.08864 0.607819,0.177281 0.30391,0.08864 0.607819,0.189943 0.30391,0.08864 0.607819,0.177281 0.835751,0.253257 1.44357,0.56983 0.60782,0.316572 1.000369,0.747111 0.39255,0.417875 0.569831,0.96238 0.189943,0.544505 0.189943,1.253627 0,1.025695 -0.531841,1.874109 -0.519179,0.835751 -1.380256,1.430907 -0.848414,0.595156 -1.950086,0.924391 -1.08901,0.316573 -2.216007,0.316573 -0.721786,0 -1.392919,-0.08864 -0.671134,-0.07598 -1.291616,-0.21527 -0.607819,-0.126629 -1.164986,-0.291246 -0.557168,-0.164618 -1.063684,-0.329236 z"
         style="font-style:normal;font-variant:normal;font-weight:normal;font-stretch:normal;font-size:27.85837364px;font-family:'Sitka Small';-inkscape-font-specification:'Sitka Small';fill:#00ccff;stroke-width:0.21764354"
         id="path1288" />
      <path
         inkscape:connector-curvature="0"
         d="m 61.62166,-11.823536 1.671503,-0.595156 q 0.215269,-0.07598 0.341898,-0.189943 0.139292,-0.113966 0.139292,-0.367224 V -28.44992 q 0,-0.253258 -0.151955,-0.379887 -0.151955,-0.126629 -0.329235,-0.202606 l -1.595525,-0.683796 v -1.076347 l 4.457339,-0.633144 v 2.31731 h 0.21527 q 0.557167,-0.835751 1.215638,-1.316942 0.65847,-0.493853 1.291615,-0.734448 0.633145,-0.253258 1.190313,-0.316572 0.557167,-0.06332 0.924391,-0.06332 1.304278,0 2.342636,0.519179 1.038358,0.506516 1.760143,1.418245 0.721785,0.899065 1.101672,2.140029 0.39255,1.240964 0.39255,2.684535 0,1.608187 -0.455865,3.026432 -0.455864,1.418244 -1.316941,2.469265 -0.861077,1.05102 -2.102041,1.671502 -1.240964,0.607819 -2.7985,0.607819 -0.607819,0 -1.139661,-0.113966 -0.519179,-0.113966 -0.96238,-0.303909 -0.430539,-0.189944 -0.7851,-0.430539 -0.341898,-0.253258 -0.607819,-0.519179 v 0.60782 4.761249 q 0,0.253258 0.151955,0.367224 0.151955,0.126629 0.341898,0.189943 l 2.026064,0.620482 v 1.025695 H 61.62166 Z m 4.799238,-7.597738 q 0.30391,0.177281 0.721785,0.30391 0.417876,0.113966 0.848414,0.189943 0.443202,0.07598 0.848414,0.113966 0.405213,0.02533 0.671134,0.02533 1.089009,0 1.886772,-0.39255 0.810425,-0.405213 1.329604,-1.101672 0.531842,-0.696459 0.7851,-1.620851 0.26592,-0.937054 0.26592,-1.988075 0,-1.190312 -0.253258,-2.216007 -0.240595,-1.038357 -0.772436,-1.798131 -0.519179,-0.759774 -1.316942,-1.190312 -0.797762,-0.443202 -1.899434,-0.443202 -0.329236,0 -0.747111,0.07598 -0.417876,0.07598 -0.848414,0.253258 -0.417876,0.164617 -0.823089,0.455864 -0.405212,0.291246 -0.696459,0.709122 z"
         style="font-style:normal;font-variant:normal;font-weight:normal;font-stretch:normal;font-size:27.85837364px;font-family:'Sitka Small';-inkscape-font-specification:'Sitka Small';fill:#00ccff;stroke-width:0.21764354"
         id="path1290" />
      <path
         inkscape:connector-curvature="0"
         d="m 79.069747,-18.18031 2.064052,-0.557168 q 0.215269,-0.06331 0.354561,-0.189943 0.139292,-0.139292 0.139292,-0.39255 v -15.08151 q 0,-0.253258 -0.164618,-0.379887 -0.164617,-0.139292 -0.329235,-0.202607 L 78.943118,-35.7944 v -1.076346 h 5.331079 v 17.550775 q 0,0.253258 0.151955,0.39255 0.164618,0.139292 0.341898,0.189943 l 2.038727,0.557168 v 1.038357 h -7.73703 z"
         style="font-style:normal;font-variant:normal;font-weight:normal;font-stretch:normal;font-size:27.85837364px;font-family:'Sitka Small';-inkscape-font-specification:'Sitka Small';fill:#00ccff;stroke-width:0.21764354"
         id="path1292" />
      <path
         inkscape:connector-curvature="0"
         d="m 92.667721,-33.679696 q -0.379887,0 -0.734448,-0.113966 -0.341899,-0.113966 -0.607819,-0.316573 -0.265921,-0.215269 -0.430539,-0.519178 -0.151955,-0.316573 -0.151955,-0.721786 0,-0.430538 0.151955,-0.74711 0.164618,-0.329236 0.430539,-0.544505 0.26592,-0.227932 0.607819,-0.329235 0.354561,-0.113966 0.734448,-0.113966 0.455864,0 0.823088,0.101303 0.367224,0.08864 0.620482,0.291246 0.265921,0.202607 0.405213,0.506516 0.151954,0.291247 0.151954,0.69646 0,0.430538 -0.151954,0.772436 -0.151955,0.329236 -0.417876,0.569831 -0.265921,0.227932 -0.633145,0.354561 -0.367224,0.113966 -0.797762,0.113966 z m -3.646915,15.499386 2.064053,-0.557168 q 0.215269,-0.06331 0.354561,-0.189943 0.151954,-0.139292 0.151954,-0.39255 v -8.977994 q 0,-0.253258 -0.151954,-0.379887 -0.139292,-0.139292 -0.341899,-0.202606 l -2.051389,-0.683797 v -1.076346 l 5.191788,-0.633145 v 11.953775 q 0,0.253258 0.151955,0.39255 0.151954,0.139292 0.329235,0.189943 l 2.064052,0.557168 v 1.038357 h -7.762356 z"
         style="font-style:normal;font-variant:normal;font-weight:normal;font-stretch:normal;font-size:27.85837364px;font-family:'Sitka Small';-inkscape-font-specification:'Sitka Small';fill:#00ccff;stroke-width:0.21764354"
         id="path1294" />
      <path
         inkscape:connector-curvature="0"
         d="m 100.81412,-29.58958 h -2.266661 v -1.329605 q 0.557168,-0.07598 1.000369,-0.151954 0.455862,-0.07598 0.785102,-0.278584 0.32923,-0.202606 0.51918,-0.56983 0.2026,-0.379887 0.24059,-1.063684 l 0.12663,-1.962749 2.24133,-0.405213 v 4.178756 h 4.96386 v 1.582863 h -4.96386 v 8.914679 q 0,0.468527 0.27859,0.797763 0.29124,0.316572 0.69646,0.519178 0.40521,0.202607 0.84841,0.30391 0.4432,0.08864 0.77244,0.08864 0.22793,0 0.50651,-0.03799 0.29125,-0.05065 0.55717,-0.113966 0.27858,-0.06332 0.51918,-0.139292 0.24059,-0.07598 0.37989,-0.139292 h 0.51918 v 1.139661 q -0.17729,0.113966 -0.59516,0.341898 -0.40521,0.215269 -0.94972,0.443201 -0.53184,0.227932 -1.15232,0.39255 -0.62048,0.164618 -1.20298,0.164618 -0.75977,0 -1.45623,-0.189944 -0.6838,-0.189943 -1.21564,-0.544504 -0.51918,-0.354562 -0.83575,-0.861077 -0.31657,-0.519179 -0.31657,-1.164987 z"
         style="font-style:normal;font-variant:normal;font-weight:normal;font-stretch:normal;font-size:27.85837364px;font-family:'Sitka Small';-inkscape-font-specification:'Sitka Small';fill:#00ccff;stroke-width:0.21764354"
         id="path1296" />
      <path
         inkscape:connector-curvature="0"
         d="m 113.33179,-17.673794 q -0.3419,-0.113966 -0.70913,-0.316573 -0.35456,-0.202606 -0.6458,-0.493853 -0.29125,-0.303909 -0.48119,-0.696459 -0.18995,-0.405213 -0.18995,-0.911729 0,-0.607819 0.20261,-1.076346 0.21527,-0.48119 0.55717,-0.823088 0.34189,-0.341898 0.75977,-0.557168 0.43054,-0.227932 0.84841,-0.316572 v -0.177281 q -0.31657,-0.189943 -0.70912,-0.493853 -0.37988,-0.303909 -0.72178,-0.74711 -0.3419,-0.443202 -0.56983,-1.025695 -0.22794,-0.582493 -0.22794,-1.329604 0,-1.089009 0.37989,-1.988075 0.39255,-0.911729 1.11434,-1.557537 0.73444,-0.645807 1.7728,-1.000368 1.03836,-0.354562 2.34264,-0.354562 1.01303,0 1.7728,0.101304 0.77244,0.101303 1.50689,0.26592 h 4.49533 v 1.608188 h -3.1404 v 0.151955 q 0.21527,0.316573 0.39255,0.595156 0.18994,0.265921 0.32923,0.582494 0.1393,0.316572 0.21527,0.709122 0.0886,0.379887 0.0886,0.924391 0,0.987706 -0.39255,1.83612 -0.37988,0.835752 -1.11433,1.456234 -0.73445,0.620482 -1.79813,0.975043 -1.06369,0.341898 -2.41862,0.341898 -0.43053,0 -0.86107,-0.05065 -0.41788,-0.05065 -0.7851,-0.113966 -0.35456,-0.07598 -0.64581,-0.164617 -0.27858,-0.08864 -0.43054,-0.164618 -0.13929,0.07598 -0.27858,0.202606 -0.13929,0.126629 -0.25326,0.30391 -0.11397,0.17728 -0.18994,0.417875 -0.0633,0.240595 -0.0633,0.519179 0,0.227932 0.076,0.455864 0.0886,0.21527 0.21527,0.417876 0.13929,0.189944 0.31657,0.341898 0.17728,0.151955 0.35456,0.227932 h 4.95119 q 1.35493,0 2.27933,0.316573 0.92439,0.303909 1.48155,0.810425 0.56983,0.506516 0.81043,1.139661 0.25326,0.620482 0.25326,1.253627 0,1.164986 -0.5825,2.127367 -0.56983,0.975043 -1.57019,1.671502 -1.00037,0.696459 -2.3553,1.089009 -1.35493,0.39255 -2.91247,0.39255 -1.34227,0 -2.49459,-0.240595 -1.15232,-0.227932 -2.00074,-0.683797 -0.84841,-0.443201 -1.3296,-1.101672 -0.48119,-0.65847 -0.48119,-1.506884 0,-0.645808 0.22793,-1.164987 0.24059,-0.506516 0.62048,-0.899066 0.39255,-0.392549 0.89907,-0.65847 0.51918,-0.265921 1.08901,-0.405213 z m 3.63425,-5.622327 q 0.70912,0 1.26629,-0.189943 0.56983,-0.202606 0.96238,-0.620482 0.39255,-0.430538 0.59515,-1.101672 0.21527,-0.671134 0.21527,-1.608188 0,-0.886403 -0.21527,-1.519548 -0.21527,-0.645807 -0.60782,-1.063683 -0.39255,-0.417876 -0.94971,-0.607819 -0.54451,-0.202606 -1.21564,-0.202606 -0.51918,0 -1.0257,0.164617 -0.49385,0.164618 -0.8864,0.557168 -0.39255,0.39255 -0.63314,1.05102 -0.2406,0.645808 -0.2406,1.620851 0,0.937054 0.20261,1.608188 0.2026,0.671134 0.55717,1.101672 0.36722,0.417876 0.87374,0.620482 0.50651,0.189943 1.10167,0.189943 z m -2.26666,5.900911 q -0.26592,0.07598 -0.54451,0.253257 -0.27858,0.189944 -0.50651,0.468528 -0.22793,0.291246 -0.37989,0.683796 -0.15195,0.405213 -0.15195,0.911729 0,0.531841 0.2026,0.937054 0.21527,0.417876 0.55717,0.709122 0.35456,0.30391 0.79776,0.493853 0.4432,0.202607 0.91173,0.316573 0.48119,0.126629 0.94972,0.17728 0.46853,0.05065 0.84841,0.05065 0.83575,0 1.64618,-0.151955 0.82309,-0.151955 1.4689,-0.506516 0.6458,-0.341898 1.03835,-0.899065 0.40522,-0.557168 0.40522,-1.380256 0,-0.341898 -0.16462,-0.709122 -0.15196,-0.367224 -0.48119,-0.671134 -0.32924,-0.291247 -0.86108,-0.48119 -0.51918,-0.202606 -1.24096,-0.202606 z"
         style="font-style:normal;font-variant:normal;font-weight:normal;font-stretch:normal;font-size:27.85837364px;font-family:'Sitka Small';-inkscape-font-specification:'Sitka Small';fill:#00ccff;stroke-width:0.21764354"
         id="path1298" />
      <path
         inkscape:connector-curvature="0"
         d="m 127.26038,-18.18031 1.59553,-0.557168 q 0.20261,-0.06331 0.3419,-0.189943 0.13929,-0.139292 0.13929,-0.39255 v -8.940005 q 0,-0.329236 -0.18994,-0.493853 -0.18995,-0.164618 -0.32924,-0.227932 l -1.68416,-0.734448 v -1.076347 l 4.64728,-0.633144 v 3.001106 h 0.16462 q 0.65847,-0.924391 1.21563,-1.519547 0.56984,-0.60782 1.07635,-0.962381 0.51918,-0.354561 1.00037,-0.493853 0.48119,-0.139292 0.96238,-0.139292 0.29125,0 0.62048,0.03799 0.3419,0.02533 0.67114,0.113966 0.34189,0.08864 0.65847,0.253258 0.31657,0.164618 0.58249,0.430539 v 3.203713 h -1.81079 l -0.36723,-0.937055 q -0.0633,-0.164617 -0.20261,-0.303909 -0.13929,-0.139292 -0.32923,-0.240595 -0.18994,-0.101303 -0.40521,-0.151955 -0.21527,-0.06331 -0.43054,-0.06331 -0.56983,0 -1.03836,0.21527 -0.45586,0.215269 -0.84841,0.544504 -0.37989,0.329236 -0.70913,0.709123 -0.31657,0.379886 -0.60781,0.721785 v 7.686378 q 0,0.253258 0.12662,0.39255 0.1393,0.126629 0.35457,0.189943 l 2.06405,0.557168 v 1.038357 h -7.26851 z"
         style="font-style:normal;font-variant:normal;font-weight:normal;font-stretch:normal;font-size:27.85837364px;font-family:'Sitka Small';-inkscape-font-specification:'Sitka Small';fill:#00ccff;stroke-width:0.21764354"
         id="path1300" />
      <path
         inkscape:connector-curvature="0"
         d="m 149.81854,-19.256656 q -0.55717,0.772436 -1.21564,1.240964 -0.6458,0.468527 -1.30428,0.721785 -0.65847,0.253258 -1.29161,0.329235 -0.62048,0.08864 -1.127,0.08864 -0.9877,0 -1.76014,-0.329235 -0.75978,-0.341898 -1.29162,-0.886403 -0.51918,-0.557167 -0.79776,-1.26629 -0.27858,-0.721785 -0.27858,-1.494221 0,-0.899066 0.31657,-1.595525 0.31657,-0.709123 0.83575,-1.240964 0.53184,-0.531842 1.21564,-0.899066 0.69646,-0.379887 1.44357,-0.607819 0.75977,-0.240595 1.51955,-0.341898 0.77243,-0.113966 1.44357,-0.113966 0.13929,0 0.45586,0.02533 0.31657,0.02533 0.65847,0.06331 0.35456,0.03799 0.65847,0.07598 0.30391,0.03799 0.4432,0.05065 v -1.74748 q 0,-0.747111 -0.21527,-1.253627 -0.2026,-0.506516 -0.56983,-0.810425 -0.36722,-0.316573 -0.87374,-0.443202 -0.50651,-0.139291 -1.10167,-0.139291 -0.64581,0 -1.31694,0.240595 -0.67113,0.227932 -1.29161,0.557167 -0.60782,0.316573 -1.13967,0.671134 -0.51917,0.354561 -0.87374,0.582493 h -0.56983 v -2.62122 q 0.60782,-0.202606 1.20298,-0.405212 0.59516,-0.202607 1.25363,-0.367225 0.67113,-0.164617 1.41824,-0.26592 0.75977,-0.101304 1.69683,-0.101304 0.96238,0 1.87411,0.189944 0.91173,0.17728 1.60819,0.671133 0.70912,0.493853 1.12699,1.367593 0.43054,0.87374 0.43054,2.253996 v 7.154537 q 0,0.253258 0.11397,0.468527 0.11396,0.202606 0.29124,0.354561 0.17729,0.151955 0.40522,0.240595 0.22793,0.07598 0.4432,0.07598 0.15195,0 0.30391,-0.03799 0.15195,-0.03799 0.31657,-0.101303 0.16462,-0.06331 0.31657,-0.139292 0.16462,-0.08864 0.31658,-0.164618 h 0.22793 v 1.202975 q -0.18995,0.139292 -0.50652,0.329236 -0.31657,0.189943 -0.69646,0.367224 -0.36722,0.17728 -0.74711,0.303909 -0.36722,0.126629 -0.67113,0.126629 -0.62048,0 -1.08901,-0.151954 -0.46853,-0.151955 -0.7851,-0.443202 -0.30391,-0.303909 -0.46853,-0.747111 -0.15195,-0.443201 -0.15195,-1.038357 z m -0.076,-4.84989 q -1.38025,0 -2.51991,0.101303 -1.13966,0.101303 -1.95009,0.405213 -0.81042,0.291247 -1.26629,0.848414 -0.4432,0.544505 -0.4432,1.456233 0,0.721785 0.24059,1.202975 0.2406,0.481191 0.60782,0.759774 0.36723,0.278584 0.82309,0.39255 0.45587,0.113966 0.88641,0.113966 0.43053,0 0.93705,-0.08864 0.51918,-0.08864 1.01303,-0.265921 0.50652,-0.189943 0.93706,-0.468527 0.4432,-0.278584 0.73444,-0.671134 z"
         style="font-style:normal;font-variant:normal;font-weight:normal;font-stretch:normal;font-size:27.85837364px;font-family:'Sitka Small';-inkscape-font-specification:'Sitka Small';fill:#00ccff;stroke-width:0.21764354"
         id="path1302" />
      <path
         inkscape:connector-curvature="0"
         d="m 156.56866,-11.823536 1.6715,-0.595156 q 0.21527,-0.07598 0.3419,-0.189943 0.13929,-0.113966 0.13929,-0.367224 V -28.44992 q 0,-0.253258 -0.15196,-0.379887 -0.15195,-0.126629 -0.32923,-0.202606 l -1.59553,-0.683796 v -1.076347 l 4.45734,-0.633144 v 2.31731 h 0.21527 q 0.55717,-0.835751 1.21564,-1.316942 0.65847,-0.493853 1.29162,-0.734448 0.63314,-0.253258 1.19031,-0.316572 0.55717,-0.06332 0.92439,-0.06332 1.30428,0 2.34264,0.519179 1.03835,0.506516 1.76014,1.418245 0.72178,0.899065 1.10167,2.140029 0.39255,1.240964 0.39255,2.684535 0,1.608187 -0.45586,3.026432 -0.45587,1.418244 -1.31695,2.469265 -0.86107,1.05102 -2.10204,1.671502 -1.24096,0.607819 -2.7985,0.607819 -0.60782,0 -1.13966,-0.113966 -0.51918,-0.113966 -0.96238,-0.303909 -0.43054,-0.189944 -0.7851,-0.430539 -0.3419,-0.253258 -0.60782,-0.519179 v 0.60782 4.761249 q 0,0.253258 0.15196,0.367224 0.15195,0.126629 0.3419,0.189943 l 2.02606,0.620482 v 1.025695 h -7.31915 z m 4.79923,-7.597738 q 0.30391,0.177281 0.72179,0.30391 0.41787,0.113966 0.84841,0.189943 0.4432,0.07598 0.84842,0.113966 0.40521,0.02533 0.67113,0.02533 1.08901,0 1.88677,-0.39255 0.81043,-0.405213 1.32961,-1.101672 0.53184,-0.696459 0.7851,-1.620851 0.26592,-0.937054 0.26592,-1.988075 0,-1.190312 -0.25326,-2.216007 -0.2406,-1.038357 -0.77244,-1.798131 -0.51918,-0.759774 -1.31694,-1.190312 -0.79776,-0.443202 -1.89943,-0.443202 -0.32924,0 -0.74711,0.07598 -0.41788,0.07598 -0.84842,0.253258 -0.41787,0.164617 -0.82309,0.455864 -0.40521,0.291246 -0.69646,0.709122 z"
         style="font-style:normal;font-variant:normal;font-weight:normal;font-stretch:normal;font-size:27.85837364px;font-family:'Sitka Small';-inkscape-font-specification:'Sitka Small';fill:#00ccff;stroke-width:0.21764354"
         id="path1304" />
      <path
         inkscape:connector-curvature="0"
         d="m 174.14337,-18.18031 1.58286,-0.557168 q 0.25326,-0.08864 0.36723,-0.202606 0.11396,-0.126629 0.11396,-0.379887 v -15.08151 q 0,-0.253258 -0.15195,-0.379887 -0.15196,-0.126629 -0.32924,-0.202607 l -1.74748,-0.810425 v -1.076346 h 4.87522 v 6.913942 0.721785 q 0.58249,-0.759774 1.15232,-1.215638 0.5825,-0.455865 1.13966,-0.69646 0.56983,-0.240595 1.127,-0.316572 0.55717,-0.07598 1.10167,-0.07598 0.92439,0 1.73482,0.265921 0.82309,0.265921 1.43091,0.835752 0.60782,0.56983 0.96238,1.456233 0.35456,0.886402 0.35456,2.114704 v 7.483772 q 0,0.303909 0.13929,0.443201 0.13929,0.126629 0.32924,0.202606 l 1.45623,0.557168 v 1.038357 h -6.33145 v -1.038357 l 1.26629,-0.557168 q 0.20261,-0.08864 0.3419,-0.215269 0.15195,-0.126629 0.15195,-0.430538 v -6.306123 q 0,-0.911729 -0.11396,-1.608188 -0.11397,-0.696459 -0.4432,-1.177649 -0.32924,-0.481191 -0.9244,-0.721786 -0.59515,-0.253258 -1.54487,-0.253258 -0.4432,0 -0.89907,0.06332 -0.45586,0.05065 -0.89906,0.202606 -0.4432,0.139292 -0.83575,0.39255 -0.39255,0.253258 -0.69646,0.633145 v 8.838702 q 0,0.253258 0.12663,0.367224 0.13929,0.113966 0.35456,0.215269 l 1.17765,0.557168 v 1.038357 h -6.36944 z"
         style="font-style:normal;font-variant:normal;font-weight:normal;font-stretch:normal;font-size:27.85837364px;font-family:'Sitka Small';-inkscape-font-specification:'Sitka Small';fill:#00ccff;stroke-width:0.21764354"
         id="path1306" />
    </g>
    <rect
       style="fill:#00ccff;fill-opacity:1;stroke:none;stroke-width:7.88203049;stroke-miterlimit:4;stroke-dasharray:none"
       id="rect9676-5-5-9"
       width="41.114281"
       height="1.8426379"
       x="76.393173"
       y="32.484905" />
    <rect
       style="fill:#00ccff;fill-opacity:1;stroke:none;stroke-width:6.93991518;stroke-miterlimit:4;stroke-dasharray:none"
       id="rect9676-5-5-2-5"
       width="32.002941"
       height="1.8351643"
       x="134.35997"
       y="32.484905" />
    <rect
       style="fill:#00ccff;fill-opacity:1;stroke:none;stroke-width:6.37614489;stroke-miterlimit:4;stroke-dasharray:none"
       id="rect9676-5-5-2-1-0"
       width="26.905151"
       height="1.8426272"
       x="172.02763"
       y="32.484905" />
  </g>
</svg>
