<svg version="1" xmlns="http://www.w3.org/2000/svg" width="933.333" height="933.333" viewBox="0 0 700.000000 700.000000"><path d="M328 .6c-1.9.2-8.4.9-14.5 1.4C241 8.9 167.9 41.8 114 91.8 49.6 151.4 12.6 224.6 1.8 313.5c-1.6 13.5-1.6 59.1 0 73 4.4 37.2 12.9 69.4 26.9 102 23.8 55.7 62.7 104.8 113 142.6 61.4 46.2 140.1 71 217.8 68.6 89.5-2.7 170.7-37.1 234.4-99.2 59.5-58 94.4-129.6 104.3-214 .7-6.2 1.3-22 1.3-36.5 0-32.6-2.5-53.7-9.5-82.8-21.9-90.5-79.7-168.9-160.4-217.5-41.9-25.3-88.2-41-138.9-47.3C379.2 1 335.6-.3 328 .6zm68.5 32.3c91 13.9 169.5 63.7 220 139.6 30.1 45.3 47.5 94.5 52.6 148.8 1.7 18.2.7 57.4-1.9 74.2-5.8 37.5-15.2 66.7-31.9 99.8-37.2 73.2-99.8 128.1-178.8 156.9-21.1 7.6-51.4 14.3-76.4 16.8-13.3 1.3-46.9 1.3-60.2 0-86.6-8.6-165.1-50.8-219-117.7C61.1 501.8 37.3 443.5 31 380.1c-1.3-13.3-1.3-46.9 0-60.2 10.6-107 72.3-200.2 166.5-251.7C229 50.9 268.1 38 304 33c20.9-2.9 19.9-2.8 50.5-2.5 22.5.2 30.7.7 42 2.4z"/><path d="M336.1 55.6c-13.7 3.7-27.9 15.2-34 27.5-3.3 6.8-6.1 17.8-6.1 24.4 0 19.4 12.7 39.5 30 47.8 4.1 1.9 8.3 3.8 9.3 4.1 1.6.5 1.7 3.5 1.7 44.1 0 41.1-.1 43.6-1.7 43.1-1-.4-27.9-9.5-59.8-20.4l-58-19.8-.7-7c-1.5-14.8-6.4-25.6-15.9-35.2-21.3-21.2-55.9-20.8-76.6.9-20.1 21.2-19.7 54.2.9 74.8 15.9 15.9 39.9 20.4 60.2 11.2 6.4-3 16.3-10.6 19.4-15.1 1.5-2.1 3.1-3.9 3.6-4 1 0 119.9 40.3 125.4 42.6l3.2 1.3V331H213.3l-2.2-5.8c-3.1-8.1-7.4-14.3-14.2-20.6-11.6-10.8-27.4-15.8-42.9-13.8-20.7 2.8-37.8 17-44.6 37.2-2.9 8.5-2.5 25.4.7 34 6.8 18.1 21.2 30.6 39.5 34.5 12.6 2.7 22.5 1.4 34.4-4.2 12.5-6 24-19.2 28.4-32.6.5-1.6 4.1-1.7 62.3-1.5l61.8.3v55L271.6 435l-65 21.5-7.5-7.6c-8.7-8.7-16.2-12.9-27.8-15.5-26.1-5.8-53 10.1-61.9 36.6-2.9 8.5-2.5 25.4.7 34 6.9 18.1 21.4 30.7 40.2 34.7 31.3 6.6 62.6-17.6 63.9-49.7l.3-6.5 60.5-20.2c33.3-11 60.8-20.2 61.3-20.2.4-.1.7 22 .7 48.9 0 45.8-.1 49.1-1.7 49.6-7.9 2.6-17.4 8.4-23.4 14.3-9.7 9.8-15.9 24.3-15.9 37.6 0 13.2 6.2 27.7 16 37.5 21.5 21.5 54.5 21.5 76 0 7.9-7.9 12.5-16.6 14.7-27.9 2-10.1.9-20.5-3.2-30.4-1.5-3.4-2.7-6.7-2.8-7.4-.1-.7 36.2-39.5 80.7-86.3 62.2-65.5 81.2-85 82.5-84.4 17.6 7.8 34.6 7.5 50.6-.9 12-6.3 22.5-19.8 26-33.2 1.9-7.4 1.9-20.3 0-27.4-4.9-18.7-20.8-34.1-39.6-38.6-11.6-2.7-25.5-1.3-35.1 3.6l-4.1 2.1-14.7-14.9c-8.1-8.1-44.4-45-80.8-81.9l-66.1-67.1 2.5-4.9c2.7-5.5 5.4-16.8 5.4-22.9 0-2.2-.7-7.2-1.5-11-4.1-19.5-19.8-36-39-41-7.3-1.9-20.2-1.8-27.4.1zm167.1 226.6c17.1 17.5 30.8 31.8 30.6 31.8-.3 0-146.2-49.5-169.5-57.5-1-.3-1.3-11-1.3-48.6 0-46.1.1-48.1 1.9-48.6 1-.2 4-1.5 6.7-2.8l4.9-2.4 47.8 48.2c26.3 26.5 61.8 62.5 78.9 79.9zm-70.3 26l68.4 23.3-33.9.3c-18.6.2-49.8 0-69.1-.4l-35.3-.6v-22.9c0-12.6.3-22.9.8-22.9.4 0 31.5 10.4 69.1 23.2zm37.6 50.9l30 .1-67.5 22.4c-37.1 12.3-68.1 22.4-68.7 22.4-1 0-1.3-5.1-1.3-22.3 0-12.3.3-22.7.8-23.2.4-.4 17.8-.5 38.7-.1 20.9.3 51.5.6 68 .7zm59.4 24.6c-4.2 4.3-38.3 40.2-75.9 79.8-37.5 39.6-70.4 74.2-73 76.9l-4.8 4.8-6.3-2.5-6.4-2.6-.3-53.5-.2-53.4 85.7-28.5c47.2-15.7 86.5-28.5 87.3-28.6.8-.1-2 3.4-6.1 7.6z"/></svg>