<svg width="32" height="32" viewBox="0 0 32 32" fill="none" xmlns="http://www.w3.org/2000/svg">
<path fill-rule="evenodd" clip-rule="evenodd" d="M24.4804 12.0477C23.7062 12.0477 22.9871 12.2779 22.3832 12.6705L17.5004 6.89452C17.8243 6.48484 18.0193 5.96834 18.0193 5.40566C18.0193 4.07701 16.941 3 15.6112 3C14.2809 3 13.203 4.07701 13.203 5.40566C13.203 6.73431 14.2809 7.81132 15.6112 7.81132C16.0295 7.81132 16.4227 7.70427 16.7656 7.51687L21.6487 13.2929C21.3768 13.5876 21.1509 13.9241 20.9814 14.2927L9.14258 10.5723C9.15101 10.4905 9.1551 10.408 9.1551 10.324C9.1551 8.99539 8.07724 7.91837 6.74697 7.91837C5.41718 7.91837 4.33877 8.99539 4.33877 10.324C4.33877 11.6527 5.41718 12.7297 6.74697 12.7297C7.6534 12.7297 8.44161 12.2291 8.85269 11.4903L20.6921 15.2104C20.6519 15.4337 20.6274 15.6622 20.6274 15.8967C20.6274 16.1104 20.6493 16.3182 20.6825 16.5222L8.86587 20.0301C8.46058 19.2726 7.66154 18.7571 6.74163 18.7571C5.41159 18.7571 4.3335 19.8341 4.3335 21.1627C4.3335 22.4914 5.41159 23.5684 6.74163 23.5684C8.07165 23.5684 9.14983 22.4914 9.14983 21.1627C9.14983 21.092 9.14523 21.0222 9.13921 20.953L20.9544 17.4453C21.1182 17.8165 21.3399 18.1557 21.6063 18.4542L16.7582 24.0031C16.4073 23.8039 16.0025 23.6887 15.5702 23.6887C14.2404 23.6887 13.162 24.7657 13.162 26.0943C13.162 27.423 14.2404 28.5 15.5702 28.5C16.9003 28.5 17.9784 27.423 17.9784 26.0943C17.9784 25.5456 17.7927 25.0416 17.4828 24.6367L22.3292 19.0903C22.9436 19.5043 23.6836 19.7458 24.4804 19.7458C26.6085 19.7458 28.3335 18.0226 28.3335 15.8967C28.3335 13.7711 26.6085 12.0477 24.4804 12.0477Z" fill="#000102"/>
</svg>
