<svg width="32" height="32" viewBox="0 0 32 32" fill="none" xmlns="http://www.w3.org/2000/svg">
<path fill-rule="evenodd" clip-rule="evenodd" d="M24.4803 12.0477C23.7061 12.0477 22.987 12.2779 22.383 12.6705L17.5003 6.89452C17.8242 6.48484 18.0192 5.96834 18.0192 5.40566C18.0192 4.07701 16.9408 3 15.6111 3C14.2808 3 13.2029 4.07701 13.2029 5.40566C13.2029 6.73431 14.2808 7.81132 15.6111 7.81132C16.0294 7.81132 16.4226 7.70427 16.7655 7.51687L21.6486 13.2929C21.3767 13.5876 21.1508 13.9241 20.9813 14.2927L9.14246 10.5723C9.15089 10.4905 9.15498 10.408 9.15498 10.324C9.15498 8.99539 8.07712 7.91837 6.74685 7.91837C5.41706 7.91837 4.33865 8.99539 4.33865 10.324C4.33865 11.6527 5.41706 12.7297 6.74685 12.7297C7.65328 12.7297 8.44149 12.2291 8.85256 11.4903L20.692 15.2104C20.6518 15.4337 20.6273 15.6622 20.6273 15.8967C20.6273 16.1104 20.6492 16.3182 20.6824 16.5222L8.86575 20.0301C8.46045 19.2726 7.66142 18.7571 6.7415 18.7571C5.41147 18.7571 4.33337 19.8341 4.33337 21.1627C4.33337 22.4914 5.41147 23.5684 6.7415 23.5684C8.07153 23.5684 9.14971 22.4914 9.14971 21.1627C9.14971 21.092 9.14511 21.0222 9.13909 20.953L20.9543 17.4453C21.118 17.8165 21.3398 18.1557 21.6062 18.4542L16.758 24.0031C16.4072 23.8039 16.0024 23.6887 15.5701 23.6887C14.2403 23.6887 13.1619 24.7657 13.1619 26.0943C13.1619 27.423 14.2403 28.5 15.5701 28.5C16.9001 28.5 17.9782 27.423 17.9782 26.0943C17.9782 25.5456 17.7926 25.0416 17.4827 24.6367L22.3291 19.0903C22.9434 19.5043 23.6835 19.7458 24.4803 19.7458C26.6084 19.7458 28.3334 18.0226 28.3334 15.8967C28.3334 13.7711 26.6084 12.0477 24.4803 12.0477Z" fill="#F94569"/>
</svg>
