<svg id="prefix__prefix__eVudAsCw25m1" xmlns="http://www.w3.org/2000/svg" viewBox="0 0 32 32" shape-rendering="geometricPrecision" text-rendering="geometricPrecision"><style>@keyframes swimmer{0%,25%{transform-origin:right;transform:scale3d(1.05,.7,.2) translateZ(.2rem)}18.75%,6.25%{transform-origin:right;transform:scale3d(1.18,.5,.2) translateZ(.2rem)}12.5%{transform-origin:right;transform:scale3d(1.1,1.1,1.1) translateZ(.2rem)}}</style><g style="animation:swimmer 8s .1s ease-in-out infinite alternate" filter="blur(1px) opacity(.2) brightness(100%)"><path fill-rule="evenodd" clip-rule="evenodd" id="prefix__prefix__refpath" d="M25.397 12.048c-.46 0-.901.081-1.31.23-.474.172-1.032.104-1.357-.281l-3.785-4.478c-.308-.363-.292-.888-.138-1.338A2.407 2.407 0 0016.527 3a2.407 2.407 0 10.387 4.78c.469-.076.988-.004 1.295.36l3.966 4.69c.223.264.21.648.017.935-.19.286-.54.45-.87.346l-11.026-3.465a.333.333 0 01-.224-.323 2.407 2.407 0 00-2.409-2.406 2.407 2.407 0 00-2.408 2.406 2.407 2.407 0 004.006 1.799c.355-.315.833-.53 1.286-.388l10.403 3.269c.376.118.594.498.594.893 0 .36-.203.702-.548.804l-10.432 3.097c-.455.135-.93-.088-1.28-.409a2.407 2.407 0 10-1.626 4.18 2.407 2.407 0 002.408-2.406c0-.123.074-.235.191-.27l11.037-3.276c.33-.098.677.07.864.36.187.289.194.672-.033.932l-3.913 4.48c-.313.357-.834.421-1.301.337a2.407 2.407 0 00-2.833 2.368 2.407 2.407 0 002.409 2.406 2.407 2.407 0 002.292-3.143c-.147-.452-.155-.978.159-1.336l3.727-4.267c.332-.379.89-.438 1.362-.259.426.162.887.25 1.37.25a3.851 3.851 0 003.853-3.848 3.851 3.851 0 00-3.853-3.85z" fill="#000"/></g><g style="animation:swimmer 8s ease-in-out infinite alternate,in-and-out 2s 4s ease-in-out infinite alternate-reverse"><path fill-rule="evenodd" clip-rule="evenodd" id="prefix__prefix__egx922fbgbxs12" d="M25.397 12.048c-.46 0-.901.081-1.31.23-.474.172-1.032.104-1.357-.281l-3.785-4.478c-.308-.363-.292-.888-.138-1.338A2.407 2.407 0 0016.527 3a2.407 2.407 0 10.387 4.78c.469-.076.988-.004 1.295.36l3.966 4.69c.223.264.21.648.017.935-.19.286-.54.45-.87.346l-11.026-3.465a.333.333 0 01-.224-.323 2.407 2.407 0 00-2.409-2.406 2.407 2.407 0 00-2.408 2.406 2.407 2.407 0 004.006 1.799c.355-.315.833-.53 1.286-.388l10.403 3.269c.376.118.594.498.594.893 0 .36-.203.702-.548.804l-10.432 3.097c-.455.135-.93-.088-1.28-.409a2.407 2.407 0 10-1.626 4.18 2.407 2.407 0 002.408-2.406c0-.123.074-.235.191-.27l11.037-3.276c.33-.098.677.07.864.36.187.289.194.672-.033.932l-3.913 4.48c-.313.357-.834.421-1.301.337a2.407 2.407 0 00-2.833 2.368 2.407 2.407 0 002.409 2.406 2.407 2.407 0 002.292-3.143c-.147-.452-.155-.978.159-1.336l3.727-4.267c.332-.379.89-.438 1.362-.259.426.162.887.25 1.37.25a3.851 3.851 0 003.853-3.848 3.851 3.851 0 00-3.853-3.85z" fill="url(#prefix__prefix__paint0_linear)"/></g><defs><linearGradient id="prefix__prefix__paint0_linear" x1="44.416" y1="15.75" x2="7.507" y2="17.354" gradientUnits="userSpaceOnUse"><stop stop-color="#FF8099"/><stop offset="1" stop-color="#F94569"/></linearGradient></defs></svg>
