<svg width="28" height="37" viewBox="0 0 28 37" fill="none" xmlns="http://www.w3.org/2000/svg">
<g filter="url(#filter0_f)">
<ellipse cx="13.9994" cy="26.4797" rx="9.99992" ry="6.42448" fill="white"/>
</g>
<path d="M23.6781 26.2171C23.6781 27.8448 22.6508 29.3628 20.8968 30.4897C19.1463 31.6143 16.7086 32.3204 13.9994 32.3204C11.2903 32.3204 8.85256 31.6143 7.10205 30.4897C5.34808 29.3628 4.32074 27.8448 4.32074 26.2171V22.4267H23.6781V26.2171Z" fill="#C0C3CC" stroke="#C0C3CC" stroke-width="0.642454"/>
<path d="M23.6781 22.7477C23.6781 24.3753 22.6508 25.8934 20.8968 27.0203C19.1463 28.1449 16.7086 28.851 13.9994 28.851C11.2903 28.851 8.85256 28.1449 7.10205 27.0203C5.34808 25.8934 4.32074 24.3753 4.32074 22.7477C4.32074 21.1201 5.34808 19.602 7.10205 18.4752C8.85256 17.3506 11.2903 16.6445 13.9994 16.6445C16.7086 16.6445 19.1463 17.3506 20.8968 18.4752C22.6508 19.602 23.6781 21.1201 23.6781 22.7477Z" fill="#E6E7EB" stroke="#C0C3CC" stroke-width="0.642454"/>
<path d="M23.6781 18.8319C23.6781 20.4595 22.6508 21.9776 20.8968 23.1044C19.1463 24.229 16.7086 24.9351 13.9994 24.9351C11.2903 24.9351 8.85256 24.229 7.10205 23.1044C5.34808 21.9776 4.32074 20.4595 4.32074 18.8319V15.0414H23.6781V18.8319Z" fill="#C0C3CC" stroke="#C0C3CC" stroke-width="0.642454"/>
<path d="M23.6784 14.9772C23.6784 16.6048 22.651 18.1229 20.8971 19.2498C19.1465 20.3744 16.7088 21.0805 13.9997 21.0805C11.2905 21.0805 8.8528 20.3744 7.10229 19.2498C5.34833 18.1229 4.32098 16.6048 4.32098 14.9772C4.32098 13.3496 5.34833 11.8315 7.10229 10.7047C8.8528 9.58006 11.2905 8.87396 13.9997 8.87396C16.7088 8.87396 19.1465 9.58006 20.8971 10.7047C22.651 11.8315 23.6784 13.3496 23.6784 14.9772Z" fill="#E6E7EB" stroke="#C0C3CC" stroke-width="0.642454"/>
<path d="M23.6784 11.1834C23.6784 12.8111 22.651 14.3291 20.8971 15.456C19.1465 16.5806 16.7088 17.2867 13.9997 17.2867C11.2905 17.2867 8.8528 16.5806 7.10229 15.456C5.34833 14.3291 4.32098 12.8111 4.32098 11.1834V7.393H23.6784V11.1834Z" fill="#C0C3CC" stroke="#C0C3CC" stroke-width="0.642454"/>
<path d="M23.6784 7.32878C23.6784 8.9564 22.651 10.4745 20.8971 11.6013C19.1465 12.7259 16.7088 13.432 13.9997 13.432C11.2905 13.432 8.8528 12.7259 7.10229 11.6013C5.34833 10.4745 4.32098 8.9564 4.32098 7.32878C4.32098 5.70116 5.34833 4.18308 7.10229 3.05624C8.8528 1.93162 11.2905 1.22552 13.9997 1.22552C16.7088 1.22552 19.1465 1.93162 20.8971 3.05624C22.651 4.18308 23.6784 5.70116 23.6784 7.32878Z" fill="#E6E7EB" stroke="#C0C3CC" stroke-width="0.642454"/>
<defs>
<filter id="filter0_f" x="-0.000488281" y="16.0552" width="27.9998" height="20.849" filterUnits="userSpaceOnUse" color-interpolation-filters="sRGB">
<feFlood flood-opacity="0" result="BackgroundImageFix"/>
<feBlend mode="normal" in="SourceGraphic" in2="BackgroundImageFix" result="shape"/>
<feGaussianBlur stdDeviation="2" result="effect1_foregroundBlur"/>
</filter>
</defs>
</svg>
