<svg width="143" height="32" viewBox="0 0 143 32" fill="none" xmlns="http://www.w3.org/2000/svg">
<path fill-rule="evenodd" clip-rule="evenodd" d="M24.4804 12.0477C23.7062 12.0477 22.9871 12.2779 22.3832 12.6705L17.5004 6.89452C17.8243 6.48484 18.0193 5.96834 18.0193 5.40566C18.0193 4.07701 16.941 3 15.6112 3C14.2809 3 13.203 4.07701 13.203 5.40566C13.203 6.73431 14.2809 7.81132 15.6112 7.81132C16.0295 7.81132 16.4227 7.70427 16.7656 7.51687L21.6487 13.2929C21.3768 13.5876 21.1509 13.9241 20.9814 14.2927L9.14258 10.5723C9.15101 10.4905 9.1551 10.408 9.1551 10.324C9.1551 8.99539 8.07724 7.91837 6.74697 7.91837C5.41718 7.91837 4.33877 8.99539 4.33877 10.324C4.33877 11.6527 5.41718 12.7297 6.74697 12.7297C7.6534 12.7297 8.44161 12.2291 8.85269 11.4903L20.6921 15.2104C20.6519 15.4337 20.6274 15.6622 20.6274 15.8967C20.6274 16.1104 20.6493 16.3182 20.6825 16.5222L8.86587 20.0301C8.46058 19.2726 7.66154 18.7571 6.74163 18.7571C5.41159 18.7571 4.3335 19.8341 4.3335 21.1627C4.3335 22.4914 5.41159 23.5684 6.74163 23.5684C8.07165 23.5684 9.14983 22.4914 9.14983 21.1627C9.14983 21.092 9.14523 21.0222 9.13921 20.953L20.9544 17.4453C21.1182 17.8165 21.3399 18.1557 21.6063 18.4542L16.7582 24.0031C16.4073 23.8039 16.0025 23.6887 15.5702 23.6887C14.2404 23.6887 13.162 24.7657 13.162 26.0943C13.162 27.423 14.2404 28.5 15.5702 28.5C16.9003 28.5 17.9784 27.423 17.9784 26.0943C17.9784 25.5456 17.7927 25.0416 17.4828 24.6367L22.3292 19.0903C22.9436 19.5043 23.6836 19.7458 24.4804 19.7458C26.6085 19.7458 28.3335 18.0226 28.3335 15.8967C28.3335 13.7711 26.6085 12.0477 24.4804 12.0477Z" fill="#000102"/>
<path d="M41.8846 17.4939C41.9627 18.8707 42.8192 19.8788 44.8647 19.8788C46.8322 19.8788 47.4745 19.199 47.4745 18.1737C47.4745 17.203 46.8901 16.699 45.7414 16.5463L42.877 16.1777C40.5797 15.9069 39.2922 14.6454 39.2922 12.514C39.2922 10.1868 41.0456 8.51911 44.6882 8.51911C48.5653 8.51911 50.1624 10.3797 50.3186 12.6695H47.4166C47.2604 11.4685 46.404 10.6908 44.6882 10.6908C43.1114 10.6908 42.2723 11.3302 42.2723 12.3383C42.2723 13.0958 42.7208 13.6575 43.7913 13.7727L46.4995 14.101C49.1295 14.3919 50.4546 15.6333 50.4546 17.8828C50.4546 20.4231 48.8778 22.0706 44.8242 22.0706C40.5595 22.0706 39.0984 19.8413 39 17.4939H41.8846ZM63.136 16.8948C63.136 19.6484 61.8311 22.0534 58.6369 22.0534C56.9617 22.0534 55.8506 21.4139 55.1707 20.3281V25.622H52.289V12.0503H55.1707V13.4472C55.8535 12.3815 56.9617 11.7421 58.6369 11.7421C61.8311 11.7363 63.136 14.101 63.136 16.8948ZM60.234 16.8948C60.234 14.8787 59.5917 13.9858 57.7602 13.9858C55.9288 13.9858 55.1707 14.9161 55.1707 16.8948C55.1707 18.8736 55.9316 19.8039 57.7602 19.8039C59.5888 19.8039 60.234 18.8909 60.234 16.8948ZM64.7707 8.16772H67.6524V21.7394H64.7707V8.16772ZM69.7559 8.84746H72.8922V10.7686H69.7559V8.84746ZM69.8948 12.0474H72.7765V21.7423H69.8948V12.0474ZM75.7769 18.2514V14.2191H74.0033V12.8395L76.0083 12.0244L77.1975 9.73745H78.6586V12.0445H81.4622V14.2162H78.6586V19.4525H81.1902V21.7394H79.3588C76.5928 21.7423 75.7769 20.5585 75.7769 18.2514ZM93.5591 12.0474V21.3535C93.5591 24.3201 92.0604 25.8322 88.1052 25.8322C84.775 25.8322 83.1201 24.3403 82.9812 22.1686H85.8051C85.9208 23.1565 86.6036 23.8161 88.221 23.8161C89.9165 23.8161 90.6745 23.2141 90.6745 21.6818V19.9162C90.0119 20.9041 88.9212 21.4485 87.2864 21.4485C84.1125 21.4485 82.7468 19.2768 82.7468 16.6212C82.7468 13.908 84.1096 11.7536 87.2864 11.7536C88.924 11.7536 90.0119 12.3354 90.6745 13.3233V12.0445H93.5591V12.0474ZM90.6745 16.6615C90.6745 14.8182 89.9917 13.9858 88.2007 13.9858C86.3693 13.9858 85.6286 14.7231 85.6286 16.6615C85.6286 18.5999 86.3693 19.3373 88.2007 19.3373C89.9946 19.3373 90.6745 18.4847 90.6745 16.6615ZM102.146 11.8919V14.6828H101.192C99.2618 14.6828 98.6022 15.7283 98.6022 17.9202V21.7394H95.7204V12.0445H98.5241V14.1183C98.9928 12.7415 99.8694 11.889 101.504 11.889H102.146V11.8919ZM103.101 19.1616C103.101 17.6091 103.784 16.6011 106.295 16.1748L108.593 15.786C109.49 15.6304 109.799 15.3798 109.799 14.8153C109.799 14.1356 109.409 13.692 108.104 13.692C106.779 13.692 106.157 14.2162 106.116 15.2041H103.292C103.37 13.1304 105.083 11.7133 108.046 11.7133C111.006 11.7133 112.447 12.9748 112.447 15.0285V19.2163C112.447 20.1265 112.505 20.9041 112.603 21.7365H110.092C109.993 21.0971 109.935 20.4577 109.935 19.6628C109.487 21.0021 108.318 21.99 106.333 21.99C104.369 21.9929 103.101 20.907 103.101 19.1616ZM109.802 17.1253V16.699C109.296 17.0475 108.81 17.1829 108.205 17.3182L107.386 17.5112C106.353 17.7647 105.945 18.1305 105.945 18.8678C105.945 19.6426 106.53 20.0314 107.308 20.0314C108.827 20.0343 109.802 18.9283 109.802 17.1253ZM125.461 16.8948C125.461 19.6484 124.156 22.0534 120.962 22.0534C119.286 22.0534 118.175 21.4139 117.495 20.3281V25.622H114.614V12.0503H117.495V13.4472C118.178 12.3815 119.286 11.7421 120.962 11.7421C124.156 11.7363 125.461 14.101 125.461 16.8948ZM122.559 16.8948C122.559 14.8787 121.916 13.9858 120.085 13.9858C118.254 13.9858 117.495 14.9161 117.495 16.8948C117.495 18.8736 118.256 19.8039 120.085 19.8039C121.914 19.8039 122.559 18.8909 122.559 16.8948ZM137.167 15.7888V21.7423H134.285V16.2353C134.285 14.6828 133.623 14.0636 132.434 14.0636C130.894 14.0636 130.038 15.0342 130.038 17.3413V21.7423H127.156V8.1706H130.038V13.9484C130.66 12.6292 131.771 11.7392 133.545 11.7392C136.097 11.7363 137.167 13.2485 137.167 15.7888ZM143 9.62512C143 10.446 142.337 11.1056 141.524 11.1056C140.711 11.1056 140.049 10.446 140.049 9.62512C140.049 8.82154 140.706 8.16772 141.524 8.16772C142.343 8.16772 143 8.82154 143 9.62512ZM142.528 9.62512C142.528 9.06348 142.103 8.60552 141.533 8.60552C140.946 8.60552 140.532 9.06636 140.532 9.62512C140.532 10.181 140.946 10.6505 141.533 10.6505C142.1 10.6505 142.528 10.1925 142.528 9.62512ZM141.805 9.67121C142.048 9.68849 142.149 9.78354 142.149 9.97651V10.0543C142.149 10.1666 142.155 10.2357 142.178 10.325H141.793C141.77 10.2789 141.759 10.2012 141.759 10.0543V9.98804C141.759 9.86419 141.701 9.81234 141.582 9.81234H141.351V10.325H140.954V8.92235H141.707C142.002 8.92235 142.193 9.06924 142.193 9.31694C142.19 9.52432 142.048 9.64817 141.805 9.67121ZM141.767 9.37167C141.767 9.28238 141.715 9.24205 141.614 9.24205H141.348V9.51856H141.603C141.715 9.51856 141.767 9.47247 141.767 9.37167Z" fill="#000102"/>
</svg>
