<svg width="249" height="45" viewBox="0 0 249 45" fill="none" xmlns="http://www.w3.org/2000/svg">
<path d="M7.46424 23.754C7.66167 27.2491 9.826 29.8083 14.9956 29.8083C19.9677 29.8083 21.591 28.0827 21.591 25.4796C21.591 23.0155 20.114 21.7359 17.2111 21.3484L9.97225 20.4124C4.16653 19.7251 0.912701 16.5224 0.912701 11.1116C0.912701 5.20349 5.34377 0.969849 14.5496 0.969849C24.3476 0.969849 28.3838 5.6934 28.7787 11.5064H21.4447C21.0499 8.45733 18.8856 6.48308 14.5496 6.48308C10.5645 6.48308 8.44404 8.10635 8.44404 10.6655C8.44404 12.5886 9.5774 14.0144 12.2828 14.3069L19.1269 15.1405C25.7734 15.879 29.1223 19.0305 29.1223 24.7411C29.1223 31.1903 25.1373 35.3728 14.8932 35.3728C4.11535 35.3728 0.422802 29.7133 0.174194 23.754H7.46424V23.754Z" fill="#222328"/>
<path d="M61.1707 22.2331C61.1707 29.2233 57.873 35.3288 49.8005 35.3288C45.5669 35.3288 42.7591 33.7056 41.0408 30.949V44.3884H33.7581V9.92699H41.0408V13.4733C42.7664 10.7679 45.5669 9.1446 49.8005 9.1446C57.873 9.13729 61.1707 15.1404 61.1707 22.2331ZM53.8368 22.2331C53.8368 17.1147 52.2135 14.848 47.585 14.848C42.9565 14.848 41.0408 17.2097 41.0408 22.2331C41.0408 27.2564 42.9638 29.6182 47.585 29.6182C52.2062 29.6182 53.8368 27.3003 53.8368 22.2331Z" fill="#222328"/>
<path d="M65.302 0.0777588H72.5847V34.5318H65.302V0.0777588Z" fill="#222328"/>
<path d="M77.9006 1.80341H85.8268V6.6805H77.9006V1.80341ZM78.2516 9.92703H85.5343V34.5392H78.2516V9.92703Z" fill="#222328"/>
<path d="M93.1168 25.677V15.4403H88.6345V11.9451L93.7017 9.87584L96.7069 4.07013H100.4V9.92703H107.485V15.4403H100.4V28.7335H106.798V34.5392H102.169C95.1787 34.5392 93.1168 31.5339 93.1168 25.677Z" fill="#222328"/>
<path d="M138.056 9.92698V33.552C138.056 41.0833 134.269 44.9221 124.273 44.9221C115.857 44.9221 111.675 41.1345 111.324 35.6213H118.46C118.753 38.1293 120.478 39.8037 124.566 39.8037C128.85 39.8037 130.766 38.2755 130.766 34.3856V29.9033C129.092 32.4113 126.335 33.7933 122.204 33.7933C114.183 33.7933 110.731 28.2801 110.731 21.5384C110.731 14.6505 114.175 9.18115 122.204 9.18115C126.342 9.18115 129.092 10.6582 130.766 13.1662V9.91967H138.056V9.92698ZM130.766 21.6408C130.766 16.9611 129.041 14.8479 124.514 14.8479C119.886 14.8479 118.014 16.7198 118.014 21.6408C118.014 26.5617 119.886 28.4336 124.514 28.4336C129.048 28.4336 130.766 26.2693 130.766 21.6408Z" fill="#222328"/>
<path d="M159.758 9.53217V16.6175H157.345C152.468 16.6175 150.801 19.2717 150.801 24.8362V34.5319H143.518V9.92701H150.604V15.1916C151.788 11.6965 154.004 9.53217 158.135 9.53217H159.758V9.53217Z" fill="#222328"/>
<path d="M162.171 27.9876C162.171 24.0464 163.897 21.4872 170.244 20.4051L176.049 19.4179C178.316 19.0231 179.098 18.387 179.098 16.9538C179.098 15.2282 178.111 14.1021 174.814 14.1021C171.465 14.1021 169.893 15.4329 169.79 17.9409H162.654C162.851 12.6763 167.18 9.0788 174.667 9.0788C182.147 9.0788 185.789 12.2815 185.789 17.4949V28.1265C185.789 30.4371 185.935 32.4113 186.184 34.5245H179.837C179.588 32.9012 179.442 31.278 179.442 29.2599C178.309 32.66 175.355 35.168 170.339 35.168C165.374 35.1753 162.171 32.4187 162.171 27.9876ZM179.106 22.818V21.7358C177.826 22.6206 176.598 22.9643 175.069 23.3079L173 23.7978C170.39 24.4413 169.359 25.3699 169.359 27.2418C169.359 29.2087 170.836 30.1958 172.803 30.1958C176.642 30.2031 179.106 27.3953 179.106 22.818Z" fill="#222328"/>
<path d="M218.678 22.2331C218.678 29.2233 215.38 35.3288 207.308 35.3288C203.074 35.3288 200.267 33.7056 198.548 30.949V44.3884H191.266V9.92699H198.548V13.4733C200.274 10.7679 203.074 9.1446 207.308 9.1446C215.38 9.13729 218.678 15.1404 218.678 22.2331ZM211.344 22.2331C211.344 17.1147 209.721 14.848 205.092 14.848C200.464 14.848 198.548 17.2097 198.548 22.2331C198.548 27.2564 200.471 29.6182 205.092 29.6182C209.714 29.6182 211.344 27.3003 211.344 22.2331Z" fill="#222328"/>
<path d="M248.262 19.4253V34.5392H240.98V20.5586C240.98 16.6175 239.305 15.0454 236.3 15.0454C232.41 15.0454 230.246 17.5096 230.246 23.3665V34.5392H222.963V0.085083H230.246V14.7529C231.818 11.404 234.626 9.14464 239.108 9.14464C245.557 9.13732 248.262 12.9761 248.262 19.4253Z" fill="#222328"/>
</svg>
