<svg xmlns="http://www.w3.org/2000/svg" width="268.422" height="268.422" viewBox="0 0 71.02 71.02"><circle transform="matrix(-1 0 0 1 -16.084 -211.88)" cx="-51.594" cy="247.391" r="34.01" fill="#d5f6ff" stroke="#36678d" stroke-width="3"/><g transform="matrix(-.90712 0 0 .90712 82.826 -7.629)" fill="#36678d" stroke="none" stroke-width=".5"><circle cx="73.063" cy="31.019" r="6.014"/><circle cx="52.161" cy="20.436" r="6.014"/><circle cx="73.327" cy="46.894" r="6.014"/><circle cx="73.327" cy="62.769" r="6.014"/><circle cx="52.161" cy="74.676" r="6.014"/><circle cx="25.925" cy="47.081" r="6.014"/></g><g transform="matrix(-.90712 0 0 .90712 82.826 -8.229)" stroke-width="3" stroke="#36678d"><path d="M52.16 21.097L25.926 47.742l26.236 27.595" fill="none"/><a><path d="M73.063 31.68L25.925 47.743" fill="none"/></a><path d="M73.327 47.556l-47.402.186" fill="none"/><path d="M52.16 21.097v54.24M73.327 63.43L25.925 47.743" fill="#f60"/></g></svg>