<svg xmlns="http://www.w3.org/2000/svg" viewBox="0 0 71.02 71.02"><circle stroke-width="3" stroke="#000" fill="none" r="34.01" cy="247.391" cx="-51.594" transform="matrix(-1 0 0 1 -16.084 -211.88)"/><g stroke-width=".5" transform="matrix(-.90712 0 0 .90712 82.826 -7.629)"><circle r="6.014" cy="31.019" cx="73.063"/><circle r="6.014" cy="20.436" cx="52.161"/><circle r="6.014" cy="46.894" cx="73.327"/><circle r="6.014" cy="62.769" cx="73.327"/><circle r="6.014" cy="74.676" cx="52.161"/><circle r="6.014" cy="47.081" cx="25.925"/></g><g stroke="#000" stroke-width="3" transform="matrix(-.90712 0 0 .90712 82.826 -8.229)"><path fill="none" d="M52.16 21.097L25.926 47.742l26.236 27.595"/><a><path fill="none" d="M73.063 31.68L25.925 47.743"/></a><path fill="none" d="M73.327 47.556l-47.402.186"/><path fill="#f60" d="M52.16 21.097v54.24M73.327 63.43L25.925 47.743"/></g></svg>