<svg width="100" height="20" viewBox="0 0 100 20" fill="none" xmlns="http://www.w3.org/2000/svg">
    <path
        d="M3.80113 11.494C3.87925 12.8707 4.73567 13.8788 6.78124 13.8788C8.74869 13.8788 9.39101 13.1991 9.39101 12.1737C9.39101 11.2031 8.80656 10.699 7.65792 10.5464L4.79354 10.1777C2.49625 9.90695 1.20873 8.64541 1.20873 6.51403C1.20873 4.1868 2.96207 2.51914 6.60475 2.51914C10.4818 2.51914 12.0789 4.37978 12.2351 6.66957H9.33314C9.1769 5.46851 8.32048 4.69084 6.60475 4.69084C5.0279 4.69084 4.18884 5.33026 4.18884 6.33834C4.18884 7.09584 4.6373 7.65749 5.70782 7.7727L8.41596 8.10105C11.046 8.39195 12.3711 9.63333 12.3711 11.8828C12.3711 14.4232 10.7943 16.0707 6.74073 16.0707C2.47599 16.0707 1.01488 13.8414 0.916504 11.494H3.80113ZM25.0525 10.8949C25.0525 13.6484 23.7476 16.0534 20.5534 16.0534C18.8782 16.0534 17.7671 15.414 17.0872 14.3281V19.622H14.2055V6.05031H17.0872V7.44723C17.77 6.38154 18.8782 5.74213 20.5534 5.74213C23.7476 5.73637 25.0525 8.10105 25.0525 10.8949ZM22.1505 10.8949C22.1505 8.87871 21.5082 7.98583 19.6767 7.98583C17.8453 7.98583 17.0872 8.91615 17.0872 10.8949C17.0872 12.8736 17.8482 13.8039 19.6767 13.8039C21.5053 13.8039 22.1505 12.8909 22.1505 10.8949ZM26.6872 2.16776H29.5689V15.7394H26.6872V2.16776ZM31.6724 2.84749H34.8087V4.76861H31.6724V2.84749ZM31.8113 6.04744H34.693V15.7423H31.8113V6.04744ZM37.6934 12.2515V8.21913H35.9198V6.8395L37.9248 6.02439L39.114 3.73748H40.5751V6.04456H43.3787V8.21625H40.5751V13.4525H43.1067V15.7394H41.2753C38.5093 15.7423 37.6934 14.5585 37.6934 12.2515ZM55.4756 6.04744V15.3535C55.4756 18.3201 53.9769 19.8323 50.0218 19.8323C46.6916 19.8323 45.0366 18.3403 44.8977 16.1686H47.7216C47.8373 17.1565 48.5201 17.8161 50.1375 17.8161C51.833 17.8161 52.591 17.2141 52.591 15.6818V13.9162C51.9284 14.9042 50.8377 15.4485 49.2029 15.4485C46.029 15.4485 44.6633 13.2768 44.6633 10.6213C44.6633 7.90807 46.0261 5.75365 49.2029 5.75365C50.8406 5.75365 51.9284 6.33546 52.591 7.32338V6.04456H55.4756V6.04744ZM52.591 10.6616C52.591 8.81823 51.9082 7.98583 50.1172 7.98583C48.2858 7.98583 47.5451 8.72318 47.5451 10.6616C47.5451 12.6 48.2858 13.3373 50.1172 13.3373C51.9111 13.3373 52.591 12.4848 52.591 10.6616ZM64.063 5.8919V8.68285H63.1082C61.1783 8.68285 60.5187 9.72838 60.5187 11.9202V15.7394H57.6369V6.04456H60.4406V8.11833C60.9093 6.74157 61.7859 5.88902 63.4207 5.88902H64.063V5.8919ZM65.0178 13.1616C65.0178 11.6092 65.7006 10.6011 68.212 10.1748L70.5093 9.78598C71.4062 9.63045 71.7158 9.37987 71.7158 8.81534C71.7158 8.13561 71.3252 7.69205 70.0203 7.69205C68.6952 7.69205 68.0731 8.21626 68.0326 9.20418H65.2087C65.2868 7.13041 66.9997 5.71333 69.9624 5.71333C72.9223 5.71333 74.3632 6.97487 74.3632 9.02848V13.2163C74.3632 14.1265 74.421 14.9042 74.5194 15.7366H72.008C71.9096 15.0971 71.8518 14.4577 71.8518 13.6628C71.4033 15.0021 70.2344 15.99 68.2496 15.99C66.285 15.9929 65.0178 14.907 65.0178 13.1616ZM71.7187 11.1253V10.699C71.2123 11.0475 70.7263 11.1829 70.1216 11.3183L69.3028 11.5112C68.2698 11.7647 67.8619 12.1305 67.8619 12.8678C67.8619 13.6426 68.4463 14.0315 69.2246 14.0315C70.7436 14.0343 71.7187 12.9283 71.7187 11.1253ZM87.3773 10.8949C87.3773 13.6484 86.0724 16.0534 82.8782 16.0534C81.2029 16.0534 80.0919 15.414 79.412 14.3281V19.622H76.5303V6.05031H79.412V7.44723C80.0948 6.38154 81.2029 5.74213 82.8782 5.74213C86.0724 5.73637 87.3773 8.10105 87.3773 10.8949ZM84.4753 10.8949C84.4753 8.87871 83.833 7.98583 82.0015 7.98583C80.17 7.98583 79.412 8.91615 79.412 10.8949C79.412 12.8736 80.1729 13.8039 82.0015 13.8039C83.8301 13.8039 84.4753 12.8909 84.4753 10.8949ZM99.0836 9.78887V15.7423H96.2019V10.2353C96.2019 8.68285 95.5393 8.0636 94.3502 8.0636C92.8109 8.0636 91.9545 9.03424 91.9545 11.3413V15.7423H89.0727V2.17063H91.9545V7.94839C92.5765 6.62925 93.6876 5.73925 95.4612 5.73925C98.0131 5.73637 99.0836 7.2485 99.0836 9.78887Z"
        fill="#000202" />
</svg>
